<?xml version="1.0" encoding="UTF-8" standalone="no"?>
<svg
   xmlns:dc="http://purl.org/dc/elements/1.1/"
   xmlns:cc="http://creativecommons.org/ns#"
   xmlns:rdf="http://www.w3.org/1999/02/22-rdf-syntax-ns#"
   xmlns:svg="http://www.w3.org/2000/svg"
   xmlns="http://www.w3.org/2000/svg"
   xmlns:sodipodi="http://sodipodi.sourceforge.net/DTD/sodipodi-0.dtd"
   xmlns:inkscape="http://www.inkscape.org/namespaces/inkscape"
   sodipodi:docname="textCercle.svg"
   inkscape:version="1.0 (4035a4f, 2020-05-01)"
   id="svg8"
   version="1.1"
   viewBox="0 0 116.02305 115.97125"
   height="115.97125mm"
   width="116.02305mm">
  <defs
     id="defs2" />
  <sodipodi:namedview
     fit-margin-bottom="0"
     fit-margin-right="0"
     fit-margin-left="0"
     fit-margin-top="0"
     inkscape:window-maximized="0"
     inkscape:window-y="23"
     inkscape:window-x="0"
     inkscape:window-height="927"
     inkscape:window-width="1434"
     showgrid="false"
     inkscape:document-rotation="0"
     inkscape:current-layer="layer1"
     inkscape:document-units="mm"
     inkscape:cy="252.04405"
     inkscape:cx="524.8783"
     inkscape:zoom="0.7"
     inkscape:pageshadow="2"
     inkscape:pageopacity="0.0"
     borderopacity="1.0"
     bordercolor="#666666"
     pagecolor="#ffffff"
     id="base" />
  <metadata
     id="metadata5">
    <rdf:RDF>
      <cc:Work
         rdf:about="">
        <dc:format>image/svg+xml</dc:format>
        <dc:type
           rdf:resource="http://purl.org/dc/dcmitype/StillImage" />
        <dc:title></dc:title>
      </cc:Work>
    </rdf:RDF>
  </metadata>
  <g
     transform="translate(-46.712258,-82.991917)"
     id="layer1"
     inkscape:groupmode="layer"
     inkscape:label="Calque 1">
    <g
       style="font-style:normal;font-variant:normal;font-weight:normal;font-stretch:expanded;font-size:10.5833px;line-height:1.25;font-family:Syncopate;-inkscape-font-specification:'Syncopate, Expanded';font-variant-ligatures:normal;font-variant-caps:normal;font-variant-numeric:normal;font-variant-east-asian:normal;fill:#000000;fill-opacity:1;stroke:none;stroke-width:0.264583"
       id="text12"
       aria-label="O'4 Sushi Bar - Obernai     - 03.88.20.27.18 -">
      <path
         id="path37"
         style="font-style:normal;font-variant:normal;font-weight:normal;font-stretch:expanded;font-size:10.5833px;font-family:Syncopate;-inkscape-font-specification:'Syncopate, Expanded';font-variant-ligatures:normal;font-variant-caps:normal;font-variant-numeric:normal;font-variant-east-asian:normal;stroke-width:0.264583"
         d="m 158.15291,151.02853 q -0.95105,-0.0972 -1.60986,-0.51259 -0.65366,-0.41486 -1.04457,-1.06258 -0.38578,-0.64719 -0.51814,-1.48666 -0.13236,-0.83946 -0.0357,-1.78537 0.0972,-0.95106 0.39721,-1.75152 0.29999,-0.80047 0.80925,-1.36137 0.5144,-0.56038 1.23848,-0.8344 0.72922,-0.27349 1.68028,-0.17628 0.63232,0.0646 1.13011,0.27655 0.50294,0.21244 0.87964,0.54184 0.38184,0.32993 0.63849,0.76653 0.25613,0.44175 0.40051,0.96038 0.149,0.52429 0.18268,1.10953 0.0388,0.58576 -0.0258,1.21808 -0.0967,0.94591 -0.39615,1.74124 -0.29947,0.79532 -0.81335,1.35055 -0.50873,0.55577 -1.23795,0.82926 -0.72408,0.27402 -1.67514,0.17681 z m 0.0678,-0.66317 q 0.75056,0.0767 1.35156,-0.11119 0.60047,-0.18276 1.04005,-0.62092 0.44471,-0.43764 0.71825,-1.13172 0.27815,-0.68842 0.37431,-1.62919 0.0962,-0.94077 -0.0359,-1.68151 -0.13259,-0.7356 -0.47904,-1.2593 -0.34131,-0.52317 -0.897,-0.82931 -0.55055,-0.30562 -1.29083,-0.38129 -0.75056,-0.0767 -1.35156,0.11119 -0.601,0.1879 -1.04624,0.63068 -0.4401,0.4433 -0.71877,1.13686 -0.27406,0.69922 -0.37023,1.63999 -0.0962,0.94078 0.0318,1.67071 0.13259,0.73559 0.47443,1.25363 0.34697,0.51856 0.89805,0.81903 0.55055,0.30562 1.30111,0.38234 z" />
      <path
         id="path39"
         style="font-style:normal;font-variant:normal;font-weight:normal;font-stretch:expanded;font-size:10.5833px;font-family:Syncopate;-inkscape-font-specification:'Syncopate, Expanded';font-variant-ligatures:normal;font-variant-caps:normal;font-variant-numeric:normal;font-variant-east-asian:normal;stroke-width:0.264583"
         d="m 159.07991,152.88635 2.0652,0.3547 -0.16086,0.72125 -2.02021,-0.55644 z" />
      <path
         id="path41"
         style="font-style:normal;font-variant:normal;font-weight:normal;font-stretch:expanded;font-size:10.5833px;font-family:Syncopate;-inkscape-font-specification:'Syncopate, Expanded';font-variant-ligatures:normal;font-variant-caps:normal;font-variant-numeric:normal;font-variant-east-asian:normal;stroke-width:0.264583"
         d="m 153.99413,159.09846 -1.72937,-0.56396 0.19706,-0.6043 1.72937,0.56396 1.56531,-4.79999 0.54534,0.17784 3.05142,5.82722 -0.33806,1.03664 -4.45608,-1.45316 -0.56396,1.72937 -0.56499,-0.18425 z m 4.85458,0.91455 -2.78997,-5.32886 -1.30255,3.99426 z" />
      <path
         id="path43"
         style="font-style:normal;font-variant:normal;font-weight:normal;font-stretch:expanded;font-size:10.5833px;font-family:Syncopate;-inkscape-font-specification:'Syncopate, Expanded';font-variant-ligatures:normal;font-variant-caps:normal;font-variant-numeric:normal;font-variant-east-asian:normal;stroke-width:0.264583"
         d="m 151.37549,173.30248 q 0.18997,-0.11904 0.42152,-0.28523 0.23594,-0.16345 0.49097,-0.40635 0.2523,-0.23851 0.52479,-0.56797 0.27687,-0.32672 0.55035,-0.76519 0.33091,-0.53054 0.52933,-0.98537 0.19568,-0.45045 0.24464,-0.82188 0.0506,-0.36431 -0.051,-0.64084 -0.10433,-0.27215 -0.37618,-0.4417 -0.228,-0.14221 -0.48652,-0.10856 -0.26125,0.038 -0.5432,0.19715 -0.28469,0.1635 -0.59668,0.41959 -0.31034,0.26321 -0.63379,0.56698 -0.32181,0.31088 -0.65893,0.63656 -0.33986,0.33007 -0.68085,0.62289 -0.33934,0.29994 -0.68202,0.5369 -0.34104,0.24407 -0.67561,0.37036 -0.3373,0.13068 -0.66159,0.12331 -0.32702,-0.003 -0.63833,-0.19716 -0.33762,-0.21057 -0.51262,-0.49635 -0.17061,-0.28304 -0.21803,-0.61713 -0.0458,-0.32698 0.0147,-0.69732 0.0621,-0.36323 0.1998,-0.74022 0.13495,-0.37261 0.33016,-0.74417 0.18809,-0.36992 0.40141,-0.71192 0.48953,-0.78486 1.00281,-1.35391 0.51055,-0.56467 1.06885,-1.02038 l 0.67085,0.41842 q -0.72709,0.3748 -1.27158,0.95484 -0.54723,0.58442 -1.00394,1.31666 -0.32271,0.51739 -0.5348,0.99414 -0.2121,0.47675 -0.2802,0.87888 -0.0637,0.40486 0.0417,0.71425 0.10272,0.31378 0.41403,0.50795 0.24993,0.15588 0.52872,0.12878 0.27605,-0.0227 0.56951,-0.18074 0.29511,-0.15091 0.60983,-0.41139 0.312,-0.25609 0.63106,-0.56259 0.32345,-0.30376 0.65454,-0.6393 0.33274,-0.32842 0.66496,-0.62671 0.33222,-0.29829 0.66887,-0.5451 0.33392,-0.24242 0.66245,-0.37857 0.33019,-0.12902 0.65282,-0.12877 0.3199,0.005 0.62683,0.19607 0.30254,0.1887 0.46382,0.44764 0.16567,0.26168 0.21361,0.56565 0.0452,0.30835 -0.008,0.64692 -0.0484,0.3413 -0.17137,0.68487 -0.12128,0.35068 -0.2957,0.69867 -0.17442,0.348 -0.37406,0.66808 -0.21878,0.35077 -0.44365,0.64294 -0.22759,0.29655 -0.46071,0.55312 -0.23146,0.26369 -0.46952,0.4989 -0.2408,0.2396 -0.4931,0.47811 z" />
      <path
         id="path45"
         style="font-style:normal;font-variant:normal;font-weight:normal;font-stretch:expanded;font-size:10.5833px;font-family:Syncopate;-inkscape-font-specification:'Syncopate, Expanded';font-variant-ligatures:normal;font-variant-caps:normal;font-variant-numeric:normal;font-variant-east-asian:normal;stroke-width:0.264583"
         d="m 149.57647,177.46554 -3.47189,-3.14869 q -0.43674,-0.40306 -0.82415,-0.54511 -0.38741,-0.14206 -0.74641,-0.077 -0.35865,0.0724 -0.70145,0.3196 -0.34244,0.25452 -0.69307,0.64113 -0.40617,0.44787 -0.6878,0.97379 -0.2778,0.5294 -0.45689,1.05764 -0.17525,0.53171 -0.25704,1.02959 -0.0853,0.5017 -0.0991,0.89383 l 3.78579,3.43336 -0.44089,0.48614 -5.25952,-4.76991 0.44089,-0.48614 0.92635,0.84012 q 0.0708,-0.42418 0.17132,-0.912 0.1044,-0.48434 0.2842,-0.99798 0.18015,-0.50634 0.46249,-1.01767 0.28235,-0.51133 0.70935,-0.98216 0.48254,-0.53208 0.97756,-0.80867 0.49155,-0.27277 0.97224,-0.31819 0.47722,-0.0416 0.92445,0.12682 0.45106,0.17188 0.84916,0.53292 l 3.57525,3.24242 z" />
      <path
         id="path47"
         style="font-style:normal;font-variant:normal;font-weight:normal;font-stretch:expanded;font-size:10.5833px;font-family:Syncopate;-inkscape-font-specification:'Syncopate, Expanded';font-variant-ligatures:normal;font-variant-caps:normal;font-variant-numeric:normal;font-variant-east-asian:normal;stroke-width:0.264583"
         d="m 137.04717,187.63967 q 0.21961,-0.045 0.49468,-0.11967 0.27822,-0.0705 0.60214,-0.20883 0.31982,-0.13513 0.69037,-0.34839 0.3737,-0.20917 0.78334,-0.52419 0.49566,-0.38119 0.84071,-0.73781 0.34095,-0.35348 0.5168,-0.68429 0.17491,-0.32356 0.17652,-0.61815 -0.002,-0.29145 -0.1978,-0.54542 -0.16382,-0.21301 -0.41776,-0.27196 -0.25804,-0.0558 -0.57785,-0.005 -0.32391,0.0535 -0.70579,0.18424 -0.38284,0.13796 -0.79214,0.30931 -0.41025,0.1786 -0.84003,0.36571 -0.43389,0.19025 -0.85579,0.34522 -0.42285,0.16221 -0.82679,0.26425 -0.40489,0.10928 -0.7625,0.1105 -0.3617,0.004 -0.6629,-0.11602 -0.3053,-0.11725 -0.52897,-0.40809 -0.24257,-0.31542 -0.30649,-0.64437 -0.0608,-0.32485 0.0117,-0.65441 0.0716,-0.32231 0.25781,-0.64808 0.1853,-0.31852 0.44622,-0.62348 0.25683,-0.30181 0.56973,-0.58156 0.30565,-0.2807 0.62517,-0.52642 0.73325,-0.5639 1.41322,-0.91734 0.67588,-0.35028 1.35836,-0.58178 l 0.482,0.62674 q -0.81228,0.0966 -1.52534,0.44944 -0.71715,0.35595 -1.40124,0.88204 -0.48337,0.37174 -0.84891,0.74411 -0.36553,0.37238 -0.57005,0.72524 -0.20138,0.35696 -0.21087,0.68369 -0.0136,0.32988 0.21008,0.62072 0.17957,0.2335 0.45021,0.30568 0.26655,0.0753 0.59675,0.03 0.32926,-0.0381 0.71524,-0.17195 0.38189,-0.13071 0.78804,-0.30616 0.40931,-0.17135 0.83689,-0.3698 0.42663,-0.1912 0.84224,-0.35436 0.4156,-0.16316 0.81734,-0.27654 0.39763,-0.11023 0.75304,-0.12279 0.35446,-0.005 0.65661,0.10783 0.29804,0.1163 0.51856,0.40305 0.21737,0.28265 0.27783,0.58166 0.0636,0.30311 0.002,0.60463 -0.0656,0.30467 -0.23355,0.60334 -0.16482,0.30277 -0.40021,0.58159 -0.23634,0.28606 -0.52152,0.551 -0.28517,0.26495 -0.5842,0.49492 -0.32771,0.25202 -0.64061,0.44701 -0.31698,0.19815 -0.62515,0.35691 -0.30911,0.16601 -0.61443,0.30303 -0.30942,0.14017 -0.62924,0.2753 z" />
      <path
         id="path49"
         style="font-style:normal;font-variant:normal;font-weight:normal;font-stretch:expanded;font-size:10.5833px;font-family:Syncopate;-inkscape-font-specification:'Syncopate, Expanded';font-variant-ligatures:normal;font-variant-caps:normal;font-variant-numeric:normal;font-variant-east-asian:normal;stroke-width:0.264583"
         d="m 124.97328,187.52215 1.57171,3.0618 5.65927,-2.90506 -1.5717,-3.0618 0.57466,-0.29499 3.24253,6.31669 -0.57467,0.29499 -1.39707,-2.7216 -5.65927,2.90506 1.39707,2.7216 -0.57466,0.29499 -3.24253,-6.31669 z" />
      <path
         id="path51"
         style="font-style:normal;font-variant:normal;font-weight:normal;font-stretch:expanded;font-size:10.5833px;font-family:Syncopate;-inkscape-font-specification:'Syncopate, Expanded';font-variant-ligatures:normal;font-variant-caps:normal;font-variant-numeric:normal;font-variant-east-asian:normal;stroke-width:0.264583"
         d="m 122.10978,188.56331 2.39735,6.68336 -0.60802,0.2181 -2.39735,-6.68336 z" />
      <path
         id="path53"
         style="font-style:normal;font-variant:normal;font-weight:normal;font-stretch:expanded;font-size:10.5833px;font-family:Syncopate;-inkscape-font-specification:'Syncopate, Expanded';font-variant-ligatures:normal;font-variant-caps:normal;font-variant-numeric:normal;font-variant-east-asian:normal;stroke-width:0.264583"
         d="m 108.70432,193.57981 q -0.0605,-0.40895 0.002,-0.72645 0.0627,-0.31749 0.22441,-0.56606 0.15735,-0.24271 0.40785,-0.42084 0.24614,-0.17226 0.55608,-0.30174 0.3107,-0.12435 0.67421,-0.20952 0.36352,-0.0852 0.75713,-0.14344 l 4.05375,-0.60016 1.03988,7.02375 -3.96172,0.58655 q -0.30161,0.0446 -0.60699,0.0637 -0.30539,0.0191 -0.59203,-0.0116 -0.29099,-0.0248 -0.5443,-0.1127 -0.25843,-0.0871 -0.46175,-0.26075 -0.20843,-0.17287 -0.34718,-0.43965 -0.14387,-0.26602 -0.20063,-0.64941 -0.0507,-0.3425 -8.9e-4,-0.60585 0.0447,-0.26259 0.19202,-0.46724 0.14221,-0.20389 0.39062,-0.36082 0.24917,-0.15182 0.59716,-0.27125 -0.51649,0.0399 -0.89987,-0.0444 -0.38338,-0.0843 -0.64747,-0.28026 -0.26409,-0.19598 -0.41912,-0.50213 -0.15428,-0.30105 -0.21331,-0.69978 z m 1.59744,3.13295 q 0.022,0.14824 0.0643,0.29346 0.0424,0.14522 0.13364,0.26753 0.092,0.12743 0.24743,0.22457 0.15032,0.0979 0.39758,0.14487 0.24801,0.0521 0.60243,0.0466 0.35007,4.1e-4 0.8357,-0.0715 l 3.11315,-0.46091 -0.36328,-2.45371 -3.11315,0.46091 q -0.69011,0.10217 -1.08979,0.2606 -0.39893,0.16354 -0.59377,0.36478 -0.19995,0.20199 -0.2331,0.43676 -0.0383,0.23551 -0.001,0.486 z m -0.92627,-3.22187 q 0.059,0.39873 0.23868,0.65945 0.17965,0.26072 0.49241,0.39725 0.31275,0.13654 0.77471,0.15173 0.46271,0.0203 1.08125,-0.0713 l 3.28696,-0.48664 -0.42307,-2.85756 -3.37386,0.49951 q -0.63899,0.0946 -1.0629,0.2305 -0.42827,0.14177 -0.66987,0.34471 -0.24596,0.2088 -0.31982,0.48616 -0.079,0.27811 -0.0245,0.64617 z" />
      <path
         id="path55"
         style="font-style:normal;font-variant:normal;font-weight:normal;font-stretch:expanded;font-size:10.5833px;font-family:Syncopate;-inkscape-font-specification:'Syncopate, Expanded';font-variant-ligatures:normal;font-variant-caps:normal;font-variant-numeric:normal;font-variant-east-asian:normal;stroke-width:0.264583"
         d="m 100.14675,191.51502 -0.025,0.78508 q 0.3783,-0.18958 0.85892,-0.34487 0.47545,-0.15546 1.00623,-0.26262 0.52562,-0.10733 1.08041,-0.15686 0.5548,-0.0495 1.08679,-0.0326 0.69211,0.0221 1.24082,0.16365 0.54354,0.14141 0.91801,0.39635 0.3743,0.26011 0.56937,0.62825 0.19491,0.3733 0.1796,0.85365 -0.0152,0.47518 -0.26427,0.82915 -0.25445,0.35898 -0.7072,0.61339 -0.45292,0.25959 -1.08381,0.4256 -0.63623,0.17102 -1.41509,0.27544 -0.77903,0.10959 -1.68038,0.16358 -0.90667,0.059 -1.90533,0.084 l -0.01729,0.54233 q -0.01054,0.33056 0.105353,0.5876 0.11589,0.25703 0.33206,0.45006 0.216,0.19818 0.51162,0.33169 0.29545,0.13868 0.6442,0.22735 0.34359,0.0885 0.72997,0.13185 0.38106,0.0483 0.76843,0.0607 0.52167,0.0166 0.95201,-0.0214 0.43034,-0.038 0.80519,-0.11909 0.37468,-0.0759 0.71936,-0.18388 0.34467,-0.10792 0.69501,-0.23118 l -0.024,0.75409 q -0.72403,0.16822 -1.53938,0.28182 -0.82068,0.1186 -1.73489,0.0894 -0.77475,-0.0247 -1.44192,-0.1804 -0.66733,-0.15053 -1.15395,-0.45558 -0.486618,-0.30505 -0.756037,-0.77379 -0.269584,-0.46358 -0.24867,-1.11953 l 0.153477,-4.81379 z m -0.12268,3.84793 q 1.69192,-0.0391 2.89563,-0.17136 1.19855,-0.13241 1.96571,-0.35612 0.76716,-0.22371 1.13409,-0.54291 0.36176,-0.31936 0.37509,-0.73773 0.0109,-0.34089 -0.15117,-0.60974 -0.16722,-0.26901 -0.48685,-0.46016 -0.31979,-0.18599 -0.78168,-0.29378 -0.46205,-0.10262 -1.04053,-0.12107 -0.34089,-0.0109 -0.70359,0.0138 -0.36804,0.0296 -0.73173,0.0853 -0.36385,0.0608 -0.71804,0.14255 -0.35435,0.0869 -0.66787,0.19069 -0.31352,0.10375 -0.57072,0.22481 -0.26237,0.12089 -0.44226,0.24958 z" />
      <path
         id="path57"
         style="font-style:normal;font-variant:normal;font-weight:normal;font-stretch:expanded;font-size:10.5833px;font-family:Syncopate;-inkscape-font-specification:'Syncopate, Expanded';font-variant-ligatures:normal;font-variant-caps:normal;font-variant-numeric:normal;font-variant-east-asian:normal;stroke-width:0.264583"
         d="m 90.797602,196.57808 q 0.138551,0.0737 0.392905,0.17457 0.248313,0.10502 0.659539,0.18313 0.568608,0.108 1.098217,0.0613 0.523568,-0.0426 1.000423,-0.19923 0.471777,-0.15761 0.898061,-0.40802 0.425319,-0.24534 0.787276,-0.54479 l 0.919919,-4.84333 0.634608,0.12053 -1.324915,6.97561 -0.634607,-0.12053 0.269997,-1.42152 q -0.406685,0.28569 -0.858608,0.50494 -0.457001,0.21828 -0.938223,0.34254 -0.482187,0.12934 -0.986667,0.1545 -0.510521,0.0293 -1.028361,-0.0691 -0.177691,-0.0337 -0.317914,-0.0709 -0.141188,-0.0321 -0.255063,-0.0695 -0.119916,-0.0333 -0.223638,-0.0688 -0.103721,-0.0355 -0.211555,-0.077 l 0.118606,-0.62446 z" />
      <path
         id="path59"
         style="font-style:normal;font-variant:normal;font-weight:normal;font-stretch:expanded;font-size:10.5833px;font-family:Syncopate;-inkscape-font-specification:'Syncopate, Expanded';font-variant-ligatures:normal;font-variant-caps:normal;font-variant-numeric:normal;font-variant-east-asian:normal;stroke-width:0.264583"
         d="m 86.190678,191.63983 -0.240493,0.58836 -3.721529,-1.52116 0.240493,-0.58837 z" />
      <path
         id="path61"
         style="font-style:normal;font-variant:normal;font-weight:normal;font-stretch:expanded;font-size:10.5833px;font-family:Syncopate;-inkscape-font-specification:'Syncopate, Expanded';font-variant-ligatures:normal;font-variant-caps:normal;font-variant-numeric:normal;font-variant-east-asian:normal;stroke-width:0.264583"
         d="m 69.302239,182.26908 q 0.560551,-0.77443 1.25007,-1.13655 0.686489,-0.35792 1.442903,-0.37179 0.753384,-0.01 1.546235,0.29627 0.79285,0.30596 1.563093,0.86348 0.774429,0.56055 1.316946,1.22116 0.542516,0.66062 0.772866,1.38235 0.22732,0.72592 0.101769,1.48986 -0.128581,0.76814 -0.689131,1.54257 -0.37269,0.51489 -0.80546,0.83957 -0.435799,0.32887 -0.909591,0.48989 -0.476822,0.16521 -0.983264,0.16863 -0.510628,3.9e-4 -1.03182,-0.13444 -0.528408,-0.13369 -1.051792,-0.3977 -0.526414,-0.25982 -1.041304,-0.63251 -0.770243,-0.55752 -1.308574,-1.21511 -0.53833,-0.65758 -0.761464,-1.38047 -0.226164,-0.7187 -0.09758,-1.48684 0.125551,-0.76394 0.686101,-1.53837 z m 0.540008,0.39087 q -0.44238,0.61117 -0.580808,1.22545 -0.142613,0.61125 0.01642,1.21119 0.155997,0.60412 0.619696,1.18855 0.456482,0.58558 1.222539,1.14007 0.766057,0.55449 1.473311,0.81125 0.703069,0.25372 1.329872,0.21621 0.623774,-0.0333 1.167097,-0.36091 0.540293,-0.3234 0.976613,-0.9262 0.44238,-0.61117 0.580808,-1.22546 0.138427,-0.61428 -0.02176,-1.22143 -0.163213,-0.60296 -0.623882,-1.19158 -0.467884,-0.58746 -1.233941,-1.14195 -0.766057,-0.55449 -1.461909,-0.80937 -0.703069,-0.25373 -1.322656,-0.21737 -0.622618,0.0405 -1.158725,0.36697 -0.540293,0.32341 -0.982673,0.93458 z" />
      <path
         id="path63"
         style="font-style:normal;font-variant:normal;font-weight:normal;font-stretch:expanded;font-size:10.5833px;font-family:Syncopate;-inkscape-font-specification:'Syncopate, Expanded';font-variant-ligatures:normal;font-variant-caps:normal;font-variant-numeric:normal;font-variant-east-asian:normal;stroke-width:0.264583"
         d="m 63.771874,174.25645 q 0.301124,-0.28325 0.597557,-0.4131 0.296433,-0.12985 0.592833,-0.13907 0.289094,-0.009 0.578379,0.0945 0.281979,0.10368 0.565265,0.28416 0.279523,0.18403 0.557034,0.43379 0.277512,0.24977 0.550142,0.53961 l 2.807739,2.98489 -5.171815,4.86486 -2.744007,-2.91714 q -0.208899,-0.22208 -0.398977,-0.46186 -0.190079,-0.23979 -0.328577,-0.49261 -0.145803,-0.25306 -0.218336,-0.51118 -0.07607,-0.26189 -0.04966,-0.52795 0.02288,-0.26983 0.162626,-0.53608 0.13621,-0.27002 0.418515,-0.53557 0.252192,-0.23722 0.496822,-0.34672 0.241089,-0.11327 0.493213,-0.10921 0.248584,2.9e-4 0.519271,0.11458 0.266924,0.11784 0.563702,0.33529 -0.327717,-0.40119 -0.477474,-0.76403 -0.149757,-0.36285 -0.139704,-0.69156 0.01005,-0.32871 0.172835,-0.63082 0.159018,-0.29856 0.452615,-0.57474 z m -1.659495,3.10053 q -0.109158,0.10268 -0.204153,0.22041 -0.09499,0.11774 -0.143292,0.26249 -0.05206,0.1483 -0.04304,0.33136 0.0055,0.1793 0.108129,0.4091 0.09888,0.23334 0.305769,0.52116 0.199584,0.2876 0.535946,0.64518 l 2.156259,2.29231 1.806747,-1.69951 -2.156258,-2.29231 q -0.477989,-0.50815 -0.836299,-0.74577 -0.362074,-0.23407 -0.638536,-0.27909 -0.280003,-0.0488 -0.49165,0.0581 -0.215188,0.1031 -0.399626,0.27659 z m 2.115792,-2.60035 q -0.293596,0.27617 -0.405022,0.57253 -0.111425,0.29637 -0.04489,0.63108 0.06654,0.33471 0.317888,0.7226 0.247588,0.39143 0.676008,0.84688 l 2.276641,2.42029 2.104108,-1.97923 -2.336832,-2.48428 q -0.442582,-0.47051 -0.796235,-0.74088 -0.360957,-0.2706 -0.665521,-0.35303 -0.311868,-0.0827 -0.58173,0.0151 -0.273402,0.094 -0.544414,0.34893 z" />
      <path
         id="path65"
         style="font-style:normal;font-variant:normal;font-weight:normal;font-stretch:expanded;font-size:10.5833px;font-family:Syncopate;-inkscape-font-specification:'Syncopate, Expanded';font-variant-ligatures:normal;font-variant-caps:normal;font-variant-numeric:normal;font-variant-east-asian:normal;stroke-width:0.264583"
         d="m 59.879604,165.63766 q 0.348208,0.29194 0.632403,0.55138 0.279853,0.26224 0.523706,0.53541 0.248195,0.27036 0.474396,0.57336 0.227742,0.29585 0.471448,0.67365 0.565845,0.8772 0.809658,1.72229 0.243814,0.84509 0.170783,1.59939 -0.08018,0.75276 -0.471029,1.38616 -0.390854,0.63339 -1.094344,1.08719 -0.681778,0.43979 -1.415921,0.55054 -0.736944,0.1064 -1.444872,-0.0949 -0.707927,-0.20134 -1.35112,-0.70272 -0.643192,-0.50137 -1.14741,-1.28303 -0.523826,-0.81205 -0.715677,-1.58612 -0.19185,-0.77407 -0.06812,-1.46883 0.123734,-0.69477 0.555628,-1.29314 0.427551,-0.59558 1.148412,-1.06058 l 0.134618,-0.0868 4.103775,6.3618 q 0.525031,-0.40632 0.823847,-0.925 0.298817,-0.51868 0.339762,-1.14159 0.03814,-0.62725 -0.19027,-1.35314 -0.235557,-0.72743 -0.767788,-1.55251 -0.226898,-0.35174 -0.507166,-0.68136 -0.280268,-0.32962 -0.571326,-0.60923 -0.2954,-0.27681 -0.571755,-0.48596 -0.280697,-0.20635 -0.501309,-0.31002 z m -2.916224,1.94265 q -0.436357,0.32452 -0.736849,0.76434 -0.304835,0.44262 -0.397743,0.99451 -0.09571,0.54755 0.06211,1.20213 0.155019,0.65024 0.634027,1.39282 0.450995,0.69914 0.97667,1.10414 0.525676,0.40499 1.077982,0.56528 0.547964,0.16308 1.099305,0.10261 0.546999,-0.0577 1.043723,-0.29815 z" />
      <path
         id="path67"
         style="font-style:normal;font-variant:normal;font-weight:normal;font-stretch:expanded;font-size:10.5833px;font-family:Syncopate;-inkscape-font-specification:'Syncopate, Expanded';font-variant-ligatures:normal;font-variant-caps:normal;font-variant-numeric:normal;font-variant-east-asian:normal;stroke-width:0.264583"
         d="m 51.005211,161.00977 q 0.01767,0.15592 0.07841,0.42273 0.05392,0.26416 0.22223,0.64741 0.232718,0.52993 0.570907,0.94017 0.331379,0.40758 0.730376,0.7121 0.396918,0.29978 0.844607,0.50955 0.442956,0.21184 0.894675,0.34081 l 4.513834,-1.98226 0.259731,0.59143 -6.501056,2.85496 -0.259731,-0.59143 1.324815,-0.5818 q -0.465688,-0.17364 -0.902186,-0.42218 -0.438576,-0.25327 -0.813339,-0.57972 -0.379495,-0.32437 -0.685715,-0.72607 -0.313029,-0.40435 -0.524969,-0.88696 -0.07272,-0.1656 -0.121442,-0.30224 -0.05345,-0.13456 -0.08704,-0.24962 -0.0404,-0.11771 -0.06985,-0.2233 -0.02944,-0.1056 -0.05623,-0.218 l 0.581973,-0.25558 z" />
      <path
         id="path69"
         style="font-style:normal;font-variant:normal;font-weight:normal;font-stretch:expanded;font-size:10.5833px;font-family:Syncopate;-inkscape-font-specification:'Syncopate, Expanded';font-variant-ligatures:normal;font-variant-caps:normal;font-variant-numeric:normal;font-variant-east-asian:normal;stroke-width:0.264583"
         d="m 54.862172,150.5953 -4.539626,1.16625 q -0.570581,0.14658 -0.896093,0.3956 -0.331803,0.24531 -0.47373,0.58589 -0.143213,0.33557 -0.124148,0.76285 0.01906,0.42727 0.148933,0.93278 0.150442,0.5856 0.440888,1.11389 0.284155,0.52457 0.632961,0.9685 0.343802,0.44522 0.717082,0.7975 0.373279,0.35228 0.693107,0.57957 l 4.950043,-1.27168 0.160728,0.62564 -6.877007,1.76672 -0.160728,-0.62564 1.206229,-0.30988 q -0.310232,-0.29378 -0.658486,-0.65249 -0.354545,-0.36243 -0.679473,-0.79649 -0.33122,-0.43778 -0.604079,-0.95992 -0.272859,-0.52213 -0.431016,-1.13776 -0.178729,-0.69571 -0.140996,-1.25495 0.03144,-0.56296 0.254323,-0.98303 0.216589,-0.42379 0.61332,-0.70712 0.391726,-0.28204 0.932276,-0.4209 l 4.674764,-1.20096 z" />
      <path
         id="path71"
         style="font-style:normal;font-variant:normal;font-weight:normal;font-stretch:expanded;font-size:10.5833px;font-family:Syncopate;-inkscape-font-specification:'Syncopate, Expanded';font-variant-ligatures:normal;font-variant-caps:normal;font-variant-numeric:normal;font-variant-east-asian:normal;stroke-width:0.264583"
         d="m 53.967396,141.19769 -0.784016,0.0479 q 0.223863,0.35907 0.423083,0.82321 0.198906,0.45897 0.354857,0.97752 0.155637,0.51339 0.256427,1.0612 0.10079,0.5478 0.133265,1.07908 0.04225,0.69117 -0.04781,1.25064 -0.09037,0.55432 -0.309466,0.95083 -0.224252,0.39682 -0.572701,0.62521 -0.353606,0.22871 -0.8333,0.25803 -0.474536,0.029 -0.850099,-0.18619 -0.381037,-0.22004 -0.676368,-0.64723 -0.300489,-0.42688 -0.524327,-1.03965 -0.229311,-0.61761 -0.405555,-1.38342 -0.181401,-0.76551 -0.31879,-1.65795 -0.142862,-0.89729 -0.260451,-1.88932 l -0.54159,0.0331 q -0.330112,0.0202 -0.575287,0.15942 -0.245175,0.13924 -0.417305,0.37238 -0.177289,0.23346 -0.282794,0.54019 -0.110663,0.30705 -0.166593,0.66252 -0.05625,0.35032 -0.06355,0.73906 -0.01277,0.3839 0.01087,0.77075 0.03185,0.52096 0.109594,0.94592 0.07775,0.42496 0.193294,0.79066 0.110387,0.36601 0.24983,0.69919 0.139443,0.33318 0.294676,0.67056 l -0.753068,0.046 q -0.234672,-0.7053 -0.423438,-1.50659 -0.19424,-0.80614 -0.250047,-1.7191 -0.04729,-0.7737 0.04583,-1.45244 0.08796,-0.67842 0.346542,-1.19125 0.25858,-0.51282 0.700301,-0.82457 0.436563,-0.31144 1.091629,-0.35148 L 53.9283,140.5581 Z m -3.84271,0.23489 q 0.195944,1.68099 0.439305,2.86724 0.243047,1.1811 0.536978,1.92419 0.293932,0.74309 0.645799,1.07882 0.351552,0.33056 0.76935,0.30502 0.340428,-0.0208 0.593081,-0.2071 0.252338,-0.19145 0.413005,-0.52744 0.155508,-0.33568 0.219976,-0.80557 0.05931,-0.46958 0.024,-1.04728 -0.02081,-0.34042 -0.07899,-0.69928 -0.06365,-0.36369 -0.152774,-0.72065 -0.09428,-0.35665 -0.208566,-0.70172 -0.119442,-0.34475 -0.251835,-0.6473 -0.132394,-0.30254 -0.276793,-0.5474 -0.144714,-0.25002 -0.289542,-0.41719 z" />
      <path
         id="path73"
         style="font-style:normal;font-variant:normal;font-weight:normal;font-stretch:expanded;font-size:10.5833px;font-family:Syncopate;-inkscape-font-specification:'Syncopate, Expanded';font-variant-ligatures:normal;font-variant-caps:normal;font-variant-numeric:normal;font-variant-east-asian:normal;stroke-width:0.264583"
         d="m 54.123819,138.21855 -7.087473,-0.42692 0.03884,-0.64479 7.087472,0.42692 z" />
      <path
         id="path75"
         style="font-style:normal;font-variant:normal;font-weight:normal;font-stretch:expanded;font-size:10.5833px;font-family:Syncopate;-inkscape-font-specification:'Syncopate, Expanded';font-variant-ligatures:normal;font-variant-caps:normal;font-variant-numeric:normal;font-variant-east-asian:normal;stroke-width:0.264583"
         d="m 57.47912,114.94257 -0.544437,-0.32802 2.074809,-3.44368 0.544437,0.32802 z" />
      <path
         id="path77"
         style="font-style:normal;font-variant:normal;font-weight:normal;font-stretch:expanded;font-size:10.5833px;font-family:Syncopate;-inkscape-font-specification:'Syncopate, Expanded';font-variant-ligatures:normal;font-variant-caps:normal;font-variant-numeric:normal;font-variant-east-asian:normal;stroke-width:0.264583"
         d="m 68.156633,100.78975 q 0.429167,0.41108 0.69123,0.86961 0.261905,0.45122 0.377997,0.92021 0.116091,0.46898 0.09709,0.94453 -0.02273,0.47197 -0.159262,0.92081 -0.132957,0.44511 -0.376296,0.85604 -0.239766,0.4072 -0.568624,0.75054 -0.328859,0.34333 -0.728937,0.60414 -0.396505,0.25707 -0.839051,0.41279 -0.442545,0.15573 -0.913102,0.19876 -0.474289,0.0395 -0.95141,-0.0526 -0.473546,-0.0958 -0.939201,-0.3343 -0.465812,-0.24582 -0.894979,-0.65689 -0.429167,-0.41107 -0.691073,-0.8623 -0.262063,-0.45853 -0.378154,-0.92751 -0.112517,-0.47272 -0.08979,-0.94469 0.019,-0.47555 0.15553,-0.92439 0.136531,-0.44884 0.376297,-0.85604 0.243339,-0.41093 0.572198,-0.75427 0.328858,-0.34333 0.725363,-0.6004 0.400079,-0.26081 0.83905,-0.412802 0.442546,-0.155726 0.916834,-0.195179 0.470557,-0.04303 0.944104,0.05277 0.473546,0.09579 0.939358,0.341603 0.465655,0.23851 0.894822,0.64958 z m -0.446819,0.46649 q -0.380652,-0.3646 -0.787226,-0.57514 -0.402999,-0.21427 -0.806741,-0.2933 -0.400168,-0.0828 -0.794086,-0.045 -0.393918,0.0377 -0.752833,0.17337 -0.359072,0.12835 -0.679724,0.34358 -0.324385,0.21166 -0.585327,0.48409 -0.3932,0.41051 -0.641171,0.94581 -0.251704,0.53173 -0.279223,1.12076 -0.02752,0.58903 0.208464,1.19432 0.232252,0.60171 0.806962,1.15219 0.574711,0.55048 1.189597,0.76019 0.611154,0.20614 1.198456,0.15329 0.587303,-0.0529 1.111434,-0.32364 0.520399,-0.27436 0.913599,-0.68487 0.260942,-0.27243 0.462174,-0.60205 0.1975,-0.33319 0.313843,-0.70119 0.116342,-0.36799 0.137072,-0.76317 0.02073,-0.39518 -0.07918,-0.79141 -0.100063,-0.40354 -0.327752,-0.79337 -0.227689,-0.38983 -0.608342,-0.75443 z" />
      <path
         id="path79"
         style="font-style:normal;font-variant:normal;font-weight:normal;font-stretch:expanded;font-size:10.5833px;font-family:Syncopate;-inkscape-font-specification:'Syncopate, Expanded';font-variant-ligatures:normal;font-variant-caps:normal;font-variant-numeric:normal;font-variant-east-asian:normal;stroke-width:0.264583"
         d="m 72.568498,97.032686 q 0.533952,-0.304524 0.992665,-0.442557 0.462844,-0.141137 0.834919,-0.136435 0.376205,0.0016 0.665773,0.145929 0.286462,0.140201 0.479018,0.396275 0.33542,0.446064 0.356717,0.947298 0.02232,0.493998 -0.204421,1.000709 -0.225718,0.499475 -0.668483,0.994054 -0.438635,0.491471 -1.020996,0.929381 -0.417153,0.31368 -0.776547,0.5322 -0.356288,0.22266 -0.680623,0.37602 -0.324336,0.15337 -0.627028,0.25814 -0.305798,0.10063 -0.608523,0.17956 l -0.450332,-0.59889 q 0.746103,-0.0826 1.401017,-0.35521 0.65181,-0.27677 1.279604,-0.74884 0.631924,-0.47518 1.022052,-0.910781 0.391153,-0.442838 0.5643,-0.83166 0.174171,-0.396059 0.141701,-0.740182 -0.02834,-0.34723 -0.242635,-0.632215 -0.462755,-0.615403 -1.421516,-0.33412 -0.95463,0.278178 -2.501415,1.428359 l -0.33542,-0.446064 q 1.404276,-1.055952 1.931436,-1.833822 0.524054,-0.782001 0.117202,-1.32306 -0.3789,-0.503887 -1.156956,-0.35202 -0.773925,0.148761 -1.876695,0.977994 -0.322157,0.242247 -0.578166,0.486479 -0.251879,0.241127 -0.458261,0.499766 -0.206382,0.25864 -0.378634,0.536873 -0.172251,0.278234 -0.327917,0.595721 l -0.447226,-0.594752 q 0.208399,-0.298949 0.423041,-0.5638 0.211537,-0.268981 0.445838,-0.516287 0.234302,-0.247306 0.499628,-0.479147 0.262221,-0.235972 0.571988,-0.468902 0.346938,-0.260882 0.702202,-0.4763 0.359394,-0.218523 0.712674,-0.367792 0.350173,-0.153399 0.684947,-0.224098 0.335799,-0.07793 0.641758,-0.04938 0.302854,0.02443 0.563478,0.16466 0.264754,0.137128 0.469733,0.409723 0.164604,0.218901 0.212505,0.506162 0.05203,0.284154 -0.0323,0.619122 -0.0802,0.331862 -0.30608,0.702147 -0.224855,0.363049 -0.614023,0.739739 z" />
      <path
         id="path81"
         style="font-style:normal;font-variant:normal;font-weight:normal;font-stretch:expanded;font-size:10.5833px;font-family:Syncopate;-inkscape-font-specification:'Syncopate, Expanded';font-variant-ligatures:normal;font-variant-caps:normal;font-variant-numeric:normal;font-variant-east-asian:normal;stroke-width:0.264583"
         d="m 77.889157,98.003636 -0.585822,-0.956187 0.766712,-0.469738 0.585823,0.956187 z" />
      <path
         id="path83"
         style="font-style:normal;font-variant:normal;font-weight:normal;font-stretch:expanded;font-size:10.5833px;font-family:Syncopate;-inkscape-font-specification:'Syncopate, Expanded';font-variant-ligatures:normal;font-variant-caps:normal;font-variant-numeric:normal;font-variant-east-asian:normal;stroke-width:0.264583"
         d="m 82.238178,91.262347 q 0.623393,-0.09824 1.115921,-0.110825 0.497188,-0.01482 0.877107,0.07241 0.379919,0.08723 0.642375,0.288075 0.264882,0.193949 0.421237,0.520146 0.203261,0.424057 0.121765,0.875723 -0.0815,0.451666 -0.400957,0.897053 -0.321694,0.440726 -0.869415,0.852258 -0.540826,0.413958 -1.25846,0.757938 -0.717634,0.34398 -1.372376,0.52028 -0.654743,0.1763 -1.1931,0.165011 -0.540591,-0.01595 -0.93703,-0.221338 -0.398672,-0.210049 -0.601933,-0.634105 -0.156355,-0.326197 -0.148341,-0.668144 0.01314,-0.51059 0.375888,-1.056954 0.367409,-0.548598 1.076073,-1.186269 -0.368251,0.04471 -0.70369,0.06223 -0.335438,0.01752 -0.630593,-0.02439 -0.292921,-0.03724 -0.533618,-0.156826 -0.171955,-0.08376 -0.310712,-0.217826 -0.14099,-0.138722 -0.237037,-0.3391 -0.174223,-0.363477 -0.110097,-0.743781 0.06189,-0.384964 0.329323,-0.759566 0.265197,-0.379262 0.726419,-0.732141 0.461222,-0.352879 1.085657,-0.652187 1.029851,-0.493633 1.802862,-0.554705 0.777671,-0.0633 1.24655,0.233434 0.157782,0.10202 0.280325,0.238122 0.12031,0.131443 0.202954,0.303861 0.223364,0.465996 -0.04472,1.018561 -0.263428,0.550332 -0.952374,1.253051 z m 0.428389,-1.987555 q -0.100513,-0.209698 -0.308592,-0.344915 -0.203418,-0.137451 -0.535852,-0.161486 -0.327774,-0.02627 -0.78961,0.08622 -0.457175,0.110255 -1.06297,0.400627 -0.605795,0.290373 -0.992072,0.584407 -0.381618,0.2918 -0.580419,0.57047 -0.198801,0.27867 -0.228381,0.527803 -0.02958,0.249133 0.08025,0.454364 0.212581,0.419589 0.923663,0.468429 0.708849,0.04418 1.911925,-0.30326 0.468116,-0.350452 0.813224,-0.670598 0.342875,-0.324805 0.548762,-0.612602 0.205888,-0.287797 0.263235,-0.538778 0.05735,-0.250981 -0.04317,-0.46068 z m -1.403056,2.775651 q -0.535589,0.377064 -0.958068,0.762948 -0.41782,0.383651 -0.67593,0.753785 -0.258111,0.370135 -0.340106,0.713159 -0.07734,0.340791 0.05892,0.625049 0.125084,0.260957 0.411418,0.415971 0.2841,0.150353 0.709156,0.164376 0.425055,0.01402 0.975044,-0.117797 0.547756,-0.13648 1.20481,-0.451423 0.657055,-0.314943 1.106531,-0.656461 0.454135,-0.343752 0.704774,-0.681652 0.255299,-0.340134 0.316036,-0.655777 0.06316,-0.322536 -0.06415,-0.588154 -0.136252,-0.284257 -0.459673,-0.432955 -0.318761,-0.150932 -0.773625,-0.17932 -0.454863,-0.02839 -1.020295,0.05926 -0.565433,0.08765 -1.194834,0.268992 z" />
      <path
         id="path85"
         style="font-style:normal;font-variant:normal;font-weight:normal;font-stretch:expanded;font-size:10.5833px;font-family:Syncopate;-inkscape-font-specification:'Syncopate, Expanded';font-variant-ligatures:normal;font-variant-caps:normal;font-variant-numeric:normal;font-variant-east-asian:normal;stroke-width:0.264583"
         d="m 90.770396,88.232365 q 0.631048,0.0069 1.118803,0.07642 0.492723,0.06812 0.852828,0.217362 0.360104,0.149239 0.585479,0.390956 0.228914,0.235324 0.328806,0.582992 0.129859,0.451968 -0.02566,0.883775 -0.155522,0.431807 -0.544645,0.817821 -0.39055,0.381048 -0.999116,0.695696 -0.602173,0.318187 -1.367042,0.537949 -0.76487,0.219762 -1.439821,0.284649 -0.674951,0.06489 -1.203923,-0.03584 -0.530399,-0.105687 -0.887132,-0.374183 -0.358159,-0.273462 -0.488019,-0.725431 -0.09989,-0.347667 -0.03509,-0.683513 0.09792,-0.501284 0.546534,-0.979665 0.453579,-0.479807 1.258477,-0.990659 -0.370557,-0.0172 -0.704233,-0.05574 -0.333677,-0.03855 -0.617743,-0.128982 -0.282639,-0.08547 -0.500081,-0.243439 -0.155617,-0.111212 -0.27013,-0.266495 -0.11594,-0.160249 -0.177302,-0.373817 -0.111309,-0.387401 0.01521,-0.751731 0.125092,-0.369297 0.451131,-0.694173 0.324612,-0.329842 0.838126,-0.601049 0.513513,-0.271207 1.179049,-0.462428 1.097638,-0.315374 1.870033,-0.246957 0.777362,0.06699 1.190323,0.437618 0.138604,0.126854 0.23679,0.281451 0.09676,0.14963 0.149559,0.333397 0.142703,0.496669 -0.213599,0.996917 -0.351335,0.498821 -1.147614,1.077094 z m 0.753165,-1.888553 q -0.06422,-0.223501 -0.246892,-0.391459 -0.177708,-0.169385 -0.501507,-0.248406 -0.318833,-0.08045 -0.792948,-0.04638 -0.469149,0.03264 -1.114818,0.218152 -0.645669,0.185513 -1.07549,0.411167 -0.424855,0.224227 -0.667258,0.465928 -0.242403,0.241702 -0.313028,0.482439 -0.07063,0.240736 0.0035,0.461383 0.139793,0.449114 0.832833,0.615606 0.691613,0.161524 1.935732,0.01913 0.519907,-0.267668 0.913479,-0.52592 0.392145,-0.263218 0.643054,-0.51274 0.250909,-0.249523 0.349222,-0.487461 0.09831,-0.237939 0.0341,-0.46144 z m -1.845389,2.503466 q -0.590868,0.282679 -1.071672,0.592878 -0.475837,0.308772 -0.791943,0.630793 -0.316106,0.322022 -0.454041,0.646618 -0.132968,0.32317 -0.04592,0.626138 0.07991,0.278134 0.336459,0.478635 0.255119,0.195534 0.671914,0.280095 0.416795,0.08456 0.981052,0.0461 0.56283,-0.04342 1.263132,-0.244636 0.700303,-0.201211 1.200344,-0.46317 0.505007,-0.263386 0.808381,-0.554866 0.308341,-0.292908 0.420757,-0.594042 0.115956,-0.307528 0.03462,-0.590629 -0.08705,-0.302968 -0.381215,-0.503413 -0.2892,-0.201872 -0.732997,-0.305558 -0.443797,-0.103686 -1.015931,-0.111355 -0.572133,-0.0077 -1.222936,0.06641 z" />
      <path
         id="path87"
         style="font-style:normal;font-variant:normal;font-weight:normal;font-stretch:expanded;font-size:10.5833px;font-family:Syncopate;-inkscape-font-specification:'Syncopate, Expanded';font-variant-ligatures:normal;font-variant-caps:normal;font-variant-numeric:normal;font-variant-east-asian:normal;stroke-width:0.264583"
         d="m 95.290293,91.206564 -0.197099,-1.103917 0.885169,-0.158043 0.197099,1.103918 z" />
      <path
         id="path89"
         style="font-style:normal;font-variant:normal;font-weight:normal;font-stretch:expanded;font-size:10.5833px;font-family:Syncopate;-inkscape-font-specification:'Syncopate, Expanded';font-variant-ligatures:normal;font-variant-caps:normal;font-variant-numeric:normal;font-variant-east-asian:normal;stroke-width:0.264583"
         d="m 97.112826,90.784199 -0.03529,-0.432643 q 1.273067,-0.855637 2.303842,-1.567076 1.035502,-0.717009 1.753252,-1.325142 0.71732,-0.613284 1.08388,-1.140924 0.36614,-0.53279 0.30563,-1.020409 -0.0453,-0.364426 -0.26022,-0.647612 -0.21021,-0.288756 -0.58282,-0.470939 -0.37303,-0.187334 -0.90289,-0.263363 -0.52987,-0.07603 -1.209738,-0.02057 -0.422342,0.03445 -0.80485,0.112314 -0.377358,0.07744 -0.729912,0.204712 -0.347824,0.121697 -0.675995,0.29364 -0.328171,0.171943 -0.641839,0.39455 l -0.05756,-0.705621 q 0.343622,-0.173203 0.669164,-0.313822 0.325121,-0.14577 0.663484,-0.256327 0.338363,-0.110556 0.705839,-0.182009 0.367477,-0.07145 0.789819,-0.105903 0.757125,-0.06176 1.413125,0.03509 0.656,0.09685 1.14822,0.347048 0.49181,0.245048 0.78851,0.640814 0.30186,0.395345 0.34597,0.93615 0.0399,0.4893 -0.25496,1.005907 -0.29487,0.516607 -0.89583,1.094476 -0.59581,0.577448 -1.48574,1.235919 -0.889917,0.658471 -2.039262,1.441798 l 5.181422,-0.422642 0.0483,0.59231 z" />
      <path
         id="path91"
         style="font-style:normal;font-variant:normal;font-weight:normal;font-stretch:expanded;font-size:10.5833px;font-family:Syncopate;-inkscape-font-specification:'Syncopate, Expanded';font-variant-ligatures:normal;font-variant-caps:normal;font-variant-numeric:normal;font-variant-east-asian:normal;stroke-width:0.264583"
         d="m 112.82058,87.265807 q -0.0475,0.592377 -0.23732,1.085212 -0.18428,0.488097 -0.47446,0.87439 -0.29017,0.386294 -0.67078,0.672023 -0.3802,0.280578 -0.81437,0.45833 -0.42901,0.178165 -0.90128,0.249179 -0.46712,0.07143 -0.94102,0.03344 -0.47391,-0.03798 -0.92884,-0.183317 -0.44977,-0.144919 -0.85009,-0.389558 -0.40031,-0.244638 -0.73096,-0.582193 -0.33024,-0.342706 -0.56033,-0.7707 -0.22494,-0.427582 -0.33427,-0.939212 -0.10377,-0.516369 -0.0563,-1.108747 0.0475,-0.592377 0.23176,-1.080474 0.18985,-0.492835 0.48002,-0.879128 0.29532,-0.385881 0.67552,-0.666459 0.38061,-0.285728 0.81478,-0.463481 0.43417,-0.177752 0.90129,-0.249179 0.47227,-0.07101 0.94617,-0.03303 0.4739,0.03798 0.92368,0.182904 0.45493,0.145332 0.85009,0.389558 0.40031,0.244638 0.73055,0.587344 0.33065,0.337555 0.55559,0.765136 0.22494,0.427582 0.32871,0.943951 0.10933,0.511631 0.0619,1.104008 z m -0.64389,-0.05161 q 0.0421,-0.525413 -0.0516,-0.973579 -0.0885,-0.447753 -0.28236,-0.810631 -0.18869,-0.362465 -0.46681,-0.643967 -0.27812,-0.281502 -0.61003,-0.474001 -0.32635,-0.197236 -0.69577,-0.309794 -0.36901,-0.117709 -0.74504,-0.147849 -0.56663,-0.04542 -1.13822,0.100584 -0.57119,0.140849 -1.04515,0.491674 -0.47396,0.350826 -0.79403,0.916169 -0.31967,0.560193 -0.38325,1.353463 -0.0636,0.79327 0.16236,1.402379 0.22635,0.603958 0.63838,1.025798 0.41203,0.421841 0.95307,0.657023 0.54146,0.23003 1.10808,0.275447 0.37603,0.03014 0.75867,-0.02214 0.38305,-0.05743 0.7418,-0.199752 0.35874,-0.142324 0.67815,-0.375932 0.31941,-0.233609 0.56342,-0.561392 0.24957,-0.332521 0.40788,-0.755305 0.15831,-0.422784 0.20042,-0.948197 z" />
      <path
         id="path93"
         style="font-style:normal;font-variant:normal;font-weight:normal;font-stretch:expanded;font-size:10.5833px;font-family:Syncopate;-inkscape-font-specification:'Syncopate, Expanded';font-variant-ligatures:normal;font-variant-caps:normal;font-variant-numeric:normal;font-variant-east-asian:normal;stroke-width:0.264583"
         d="m 113.69046,91.12985 0.20769,-1.101974 0.88361,0.166534 -0.20769,1.101974 z" />
      <path
         id="path95"
         style="font-style:normal;font-variant:normal;font-weight:normal;font-stretch:expanded;font-size:10.5833px;font-family:Syncopate;-inkscape-font-specification:'Syncopate, Expanded';font-variant-ligatures:normal;font-variant-caps:normal;font-variant-numeric:normal;font-variant-east-asian:normal;stroke-width:0.264583"
         d="m 115.54491,91.380437 0.12097,-0.416884 q 1.49422,-0.346621 2.71068,-0.6447 1.22287,-0.301602 2.11004,-0.614527 0.8886,-0.317888 1.41892,-0.680555 0.53177,-0.367629 0.64873,-0.844865 0.0874,-0.356686 -0.0127,-0.697819 -0.0937,-0.344656 -0.37709,-0.647505 -0.28195,-0.307812 -0.75008,-0.567414 -0.46813,-0.259601 -1.12323,-0.449701 -0.40696,-0.118092 -0.79214,-0.181437 -0.38021,-0.0619 -0.75498,-0.06842 -0.36836,-0.01004 -0.73624,0.03387 -0.36787,0.04391 -0.74022,0.140331 l 0.1973,-0.679916 q 0.38276,-0.03959 0.73703,-0.05516 0.35572,-0.02054 0.71127,-0.0035 0.35556,0.01708 0.72441,0.08107 0.36885,0.06399 0.77581,0.18208 0.72954,0.211702 1.30814,0.535645 0.5786,0.323942 0.94957,0.732918 0.37242,0.404013 0.50887,0.879455 0.14142,0.476882 -0.01,0.997986 -0.13682,0.471475 -0.59622,0.849341 -0.4594,0.377865 -1.22666,0.704062 -0.76229,0.327637 -1.82828,0.626337 -1.06598,0.298701 -2.41884,0.621771 l 4.99267,1.44879 -0.16561,0.570733 z" />
      <path
         id="path97"
         style="font-style:normal;font-variant:normal;font-weight:normal;font-stretch:expanded;font-size:10.5833px;font-family:Syncopate;-inkscape-font-specification:'Syncopate, Expanded';font-variant-ligatures:normal;font-variant-caps:normal;font-variant-numeric:normal;font-variant-east-asian:normal;stroke-width:0.264583"
         d="m 124.83507,94.48541 -0.69064,-0.316349 6.46543,-4.200264 -5.35126,-2.451164 0.24533,-0.535596 6.15935,2.821314 -0.14849,0.324176 z" />
      <path
         id="path99"
         style="font-style:normal;font-variant:normal;font-weight:normal;font-stretch:expanded;font-size:10.5833px;font-family:Syncopate;-inkscape-font-specification:'Syncopate, Expanded';font-variant-ligatures:normal;font-variant-caps:normal;font-variant-numeric:normal;font-variant-east-asian:normal;stroke-width:0.264583"
         d="m 129.4007,96.755296 0.55644,-0.97358 0.78065,0.446176 -0.55643,0.97358 z" />
      <path
         id="path101"
         style="font-style:normal;font-variant:normal;font-weight:normal;font-stretch:expanded;font-size:10.5833px;font-family:Syncopate;-inkscape-font-specification:'Syncopate, Expanded';font-variant-ligatures:normal;font-variant-caps:normal;font-variant-numeric:normal;font-variant-east-asian:normal;stroke-width:0.264583"
         d="m 132.08343,98.369967 3.54743,-5.484635 -1.7123,-0.473606 0.31152,-0.481642 1.70949,0.477946 0.53371,0.3452 -3.85614,5.961938 z" />
      <path
         id="path103"
         style="font-style:normal;font-variant:normal;font-weight:normal;font-stretch:expanded;font-size:10.5833px;font-family:Syncopate;-inkscape-font-specification:'Syncopate, Expanded';font-variant-ligatures:normal;font-variant-caps:normal;font-variant-numeric:normal;font-variant-east-asian:normal;stroke-width:0.264583"
         d="m 140.41518,99.754473 q 0.34999,0.525147 0.56745,0.967247 0.22143,0.4454 0.30111,0.82698 0.0797,0.38157 0.007,0.70397 -0.0654,0.32173 -0.29626,0.60019 -0.30015,0.36201 -0.74449,0.47691 -0.44435,0.11491 -0.98253,0.011 -0.53487,-0.10785 -1.13778,-0.43321 -0.60223,-0.31809 -1.21485,-0.82604 -0.61262,-0.50795 -1.04663,-1.02892 -0.43401,-0.52096 -0.64895,-1.01468 -0.21163,-0.497697 -0.1909,-0.9437 0.024,-0.449981 0.32418,-0.811985 0.23089,-0.278464 0.54483,-0.414218 0.46927,-0.201643 1.11728,-0.100692 0.65198,0.104248 1.52761,0.481204 -0.19464,-0.315786 -0.35087,-0.613141 -0.15622,-0.297355 -0.24162,-0.582976 -0.0887,-0.281643 -0.0808,-0.550292 0.004,-0.191226 0.0679,-0.373338 0.067,-0.186089 0.20885,-0.357146 0.25728,-0.310289 0.62954,-0.41112 0.37555,-0.104809 0.82767,-0.01859 0.45542,0.08224 0.96887,0.353567 0.51345,0.271327 1.04651,0.713311 0.87915,0.728944 1.25797,1.405534 0.3828,0.679888 0.30939,1.2299 -0.0267,0.18599 -0.099,0.354228 -0.0691,0.16426 -0.19111,0.311448 -0.32984,0.397808 -0.94388,0.385438 -0.61006,-0.009 -1.53653,-0.340917 z m 1.98451,-0.442266 q 0.14843,-0.179013 0.18421,-0.424574 0.0398,-0.242262 -0.0775,-0.554269 -0.11324,-0.30871 -0.4086,-0.681148 -0.29138,-0.36914 -0.80853,-0.797931 -0.51714,-0.42879 -0.9458,-0.656659 -0.42467,-0.22457 -0.76095,-0.288578 -0.33627,-0.06401 -0.57494,0.01333 -0.23866,0.07734 -0.37913,0.262952 -0.2922,0.368601 -0.0391,1.034916 0.25638,0.662337 1.0752,1.609774 0.51413,0.278604 0.94927,0.458156 0.43845,0.175574 0.78598,0.242201 0.34753,0.06663 0.59949,0.01373 0.25196,-0.05289 0.40038,-0.231907 z m -3.10804,-0.113382 q -0.56653,-0.328759 -1.09375,-0.551091 -0.52324,-0.219032 -0.96741,-0.298653 -0.44416,-0.07962 -0.79003,-0.01061 -0.3419,0.07231 -0.5431,0.314967 -0.18471,0.222771 -0.20574,0.547693 -0.0177,0.320944 0.14733,0.712893 0.16506,0.39195 0.51485,0.83637 0.35309,0.44045 0.914,0.90552 0.5609,0.46507 1.05912,0.73048 0.5022,0.26871 0.91396,0.35503 0.41573,0.0896 0.72784,0.0127 0.31939,-0.0775 0.50739,-0.30429 0.20121,-0.24266 0.20099,-0.59863 0.004,-0.35267 -0.16073,-0.7777 -0.16448,-0.42503 -0.4806,-0.90196 -0.31613,-0.476927 -0.74412,-0.972765 z" />
      <path
         id="path105"
         style="font-style:normal;font-variant:normal;font-weight:normal;font-stretch:expanded;font-size:10.5833px;font-family:Syncopate;-inkscape-font-specification:'Syncopate, Expanded';font-variant-ligatures:normal;font-variant-caps:normal;font-variant-numeric:normal;font-variant-east-asian:normal;stroke-width:0.264583"
         d="m 146.00186,106.32705 0.50159,-0.39041 2.46943,3.17264 -0.50159,0.39041 z" />
    </g>
    <circle
       r="50.648811"
       cy="140.98512"
       cx="104.6994"
       id="path14"
       style="fill:none;stroke-width:0.499354" />
  </g>
</svg>
